# xmcd
#
# Track frame offsets: 
#        150
#        14028
#        28573
#        42089
#        56019
#        70889
#        84691
#        98879
#        112704
#        125826
#        138465
#        153085
#        167913
#        182434
#        196241
#        208977
#        224008
#        236321
#        248789
#        261833
#        275940
#        290065
#
# Disc length: 4027 seconds
#
# Revision: 0
# Processed by: cddbd v1.5.2PL0 Copyright (c) Steve Scherf et al.
# Submitted via: ExactAudioCopy v0.99pb4
#
DISCID=500fb916
DTITLE=Blind Boy Fuller - East Coast Piedmont Style
DYEAR=2008
DGENRE=
TTITLE0=Rag Mama Rag
TTITLE1=Baby You Gotta Change Your Mind
TTITLE2=My Brownskin Sugar Plum
TTITLE3=I'm A Rattlesnakin' Daddy
TTITLE4=I'm Climbin' On Tof Of The Hill
TTITLE5=Baby, I Don't Have To Worry (Cause That Stuff Is Here)
TTITLE6=Looking For My Woman
TTITLE7=Ain't It A Cryin' Shame?
TTITLE8=Walking My Troubles Away
TTITLE9=Sweet Honey Hole
TTITLE10=Somebody's Been Playing With That Thing
TTITLE11=Log Cabin Blues
TTITLE12=Keep Away From My Woman
TTITLE13=Cat Man Blues
TTITLE14=Untrue Blues
TTITLE15=Black and Tan
TTITLE16=Big Leg Woman Gets My Pay
TTITLE17=You've Got Something There
TTITLE18=I'm A Stranger Here
TTITLE19=Evil Hearted Woman
TTITLE20=Homesick and Lonesome Blues
TTITLE21=I Want Some Of Your Pie
EXTD=
EXTT0=
EXTT1=
EXTT2=
EXTT3=
EXTT4=
EXTT5=
EXTT6=
EXTT7=
EXTT8=
EXTT9=
EXTT10=
EXTT11=
EXTT12=
EXTT13=
EXTT14=
EXTT15=
EXTT16=
EXTT17=
EXTT18=
EXTT19=
EXTT20=
EXTT21=
PLAYORDER=
